<?xml version="1.0" encoding="UTF-8" standalone="no"?>
<!DOCTYPE svg PUBLIC "-//W3C//DTD SVG 1.1//EN" "http://www.w3.org/Graphics/SVG/1.1/DTD/svg11.dtd">
<svg xmlns="http://www.w3.org/2000/svg">
<metadata>
This is a custom SVG webfont generated by Font Squirrel.
Copyright   : Digitised data c copyright Agfa Monotype Ltd 2004 All Rights Reserved
</metadata>
<defs>
<font id="ExpertSansRegular" horiz-adv-x="1141">
<font-face units-per-em="2048" ascent="1638" descent="-410"/>
<missing-glyph horiz-adv-x="502"/>
<glyph unicode=" " horiz-adv-x="502"/>
<glyph unicode="	" horiz-adv-x="502"/>
<glyph unicode=" " horiz-adv-x="502"/>
<glyph unicode="!" horiz-adv-x="504" d="M129 98q0 51 36 87t87 36q50 0 86.5 -36t36.5 -87q0 -50 -36.5 -86.5t-86.5 -36.5q-51 0 -87 36.5t-36 86.5zM156 354v1049l163 43v-1047z"/>
<glyph unicode="&quot;" horiz-adv-x="666" d="M98 1446h172l-20 -492h-131zM395 1446h172l-20 -492h-131z"/>
<glyph unicode="#" horiz-adv-x="1303" d="M94 397v148h219l74 352h-293v145h320l86 404h143l-86 -404h320l84 404h143l-86 -404h190v-145h-217l-71 -352h288v-148h-317l-84 -397h-145l86 397h-322l-82 -397h-143l82 397h-189zM457 545h319l72 352h-320z"/>
<glyph unicode="$" d="M113 123l49 139q162 -80 354 -88v508q-207 93 -299 170.5t-92 218.5q0 120 97 213.5t294 106.5v151h127v-149q174 0 361 -74l-52 -135q-163 78 -309 78v-453q220 -98 309.5 -193.5t89.5 -212.5q0 -152 -104 -248.5t-295 -111.5v-186h-127v184q-180 0 -403 82zM295 1087 q0 -64 43.5 -110.5t177.5 -108.5v392q-108 -7 -164.5 -55t-56.5 -118zM643 176q225 33 225 209q0 138 -225 238v-447z"/>
<glyph unicode="%" horiz-adv-x="1849" d="M82 1063q0 183 98.5 295t251.5 112q163 0 256.5 -99t93.5 -279q0 -182 -98.5 -294t-251.5 -112q-162 0 -256 98.5t-94 278.5zM221 1077q0 -127 54.5 -205.5t156.5 -78.5q100 0 155.5 75t55.5 209q0 133 -55.5 210t-155.5 77t-155.5 -76t-55.5 -211zM436 -25l840 1495h137 l-840 -1495h-137zM1067 352q0 186 99 297t251 111q163 0 256.5 -99.5t93.5 -279.5q0 -182 -98 -294t-252 -112q-162 0 -256 99t-94 278zM1206 367q0 -131 56 -208t155 -77q100 0 155.5 75t55.5 210q0 133 -55.5 209.5t-155.5 76.5t-155.5 -76t-55.5 -210z"/>
<glyph unicode="&amp;" horiz-adv-x="1350" d="M78 362q0 113 64.5 208.5t252.5 222.5q-101 121 -137.5 197t-36.5 169q0 135 105 223t264 88q153 0 251.5 -73t98.5 -201q0 -115 -68.5 -202.5t-248.5 -213.5l368 -420q68 100 68 271q0 57 -12 96l133 43q16 -58 16 -139q0 -238 -115 -379l219 -252h-217l-112 131 q-173 -158 -430 -158q-214 0 -338.5 104.5t-124.5 284.5zM262 371q0 -117 84 -189.5t215 -72.5q85 0 180 36.5t144 87.5l-400 455q-112 -82 -167.5 -157t-55.5 -160zM385 1167q0 -66 33 -123.5t117 -158.5q129 92 186 155t57 150q0 65 -54.5 107t-137.5 42q-84 0 -142.5 -49 t-58.5 -123z"/>
<glyph unicode="'" horiz-adv-x="369" d="M98 1446h172l-20 -492h-131z"/>
<glyph unicode="(" horiz-adv-x="756" d="M150 557q0 251 111 524.5t296 477.5h100q-313 -516 -313 -1002q0 -492 313 -1008h-100q-180 197 -293.5 468t-113.5 540z"/>
<glyph unicode=")" horiz-adv-x="756" d="M98 -451q314 516 314 1008q0 486 -314 1002h101q185 -204 296 -477.5t111 -524.5q0 -269 -113.5 -540t-293.5 -468h-101z"/>
<glyph unicode="*" horiz-adv-x="1001" d="M123 1024l278 137l-276 142l68 118l256 -172l-15 310h135l-18 -310l260 168l68 -119l-277 -135l277 -141l-70 -119l-258 172l16 -311h-137l21 305l-261 -164z"/>
<glyph unicode="+" horiz-adv-x="987" d="M70 653v140h354v354h139v-354h355v-140h-355v-354h-139v354h-354z"/>
<glyph unicode="," horiz-adv-x="475" d="M109 104q0 55 36 92t88 37q62 0 98 -42t36 -115q0 -207 -185 -363l-63 56q98 87 125 215q-63 0 -99 32.5t-36 87.5z"/>
<glyph unicode="-" horiz-adv-x="791" d="M133 434v170h524v-170h-524z"/>
<glyph unicode="." horiz-adv-x="475" d="M109 104q0 54 37.5 91.5t91.5 37.5q53 0 91 -37.5t38 -91.5q0 -53 -38 -91t-91 -38q-54 0 -91.5 38t-37.5 91z"/>
<glyph unicode="/" horiz-adv-x="1026" d="M106 -25l703 1584h152l-703 -1584h-152z"/>
<glyph unicode="0" d="M86 692q0 390 135 584t371 194q221 0 342 -206t121 -502q0 -381 -130.5 -584t-377.5 -203q-214 0 -337.5 203t-123.5 514zM274 678q0 -274 75 -418.5t208 -144.5q158 0 233.5 155t75.5 473q0 294 -74 441t-208 147q-160 0 -235 -160.5t-75 -492.5z"/>
<glyph unicode="1" d="M256 1321l379 149h78v-1470h-172v1284l-267 -106z"/>
<glyph unicode="2" d="M119 0v94l253 285q123 139 216.5 262t156 244.5t62.5 214.5q0 231 -242 231q-159 0 -348 -123l-72 127q209 135 437 135q199 0 306 -93.5t107 -264.5q0 -130 -89 -288t-320.5 -413.5t-235.5 -256.5h676v-154h-907z"/>
<glyph unicode="3" d="M88 45l53 141q154 -69 336 -69q169 0 258.5 84.5t89.5 214.5q0 139 -94 208.5t-282 69.5h-179l41 131h158q136 0 221.5 78t85.5 207q0 101 -64 161t-190 60q-90 0 -175.5 -26.5t-166.5 -79.5l-71 127q186 118 438 118q191 0 301 -92.5t110 -247.5q0 -260 -241 -358 q125 -14 211 -113t86 -237q0 -137 -64 -239t-189.5 -155t-309.5 -53q-203 0 -363 70z"/>
<glyph unicode="4" d="M49 461v131l690 878h107v-866h209v-143h-209v-461h-166v461h-631zM223 604h457v584z"/>
<glyph unicode="5" d="M94 45l53 141q81 -35 166 -52t174 -17q151 0 236.5 90t85.5 258q0 149 -82 228t-242 79q-126 0 -280 -51l59 725h705l-51 -154h-517l-32 -395q73 16 184 16q217 0 332.5 -123t115.5 -296q0 -255 -135 -387t-401 -132q-110 0 -203 17.5t-168 52.5z"/>
<glyph unicode="6" d="M109 592q0 389 160 633.5t458 244.5q118 0 240 -38l-47 -144q-99 37 -209 37q-341 0 -406 -557q152 121 344 121q188 0 296 -130.5t108 -305.5q0 -211 -125.5 -344.5t-337.5 -133.5q-230 0 -355.5 170.5t-125.5 446.5zM295 512q0 -171 86 -284t219 -113q118 0 192 91.5 t74 227.5q0 147 -65 232.5t-189 85.5q-79 0 -165.5 -42t-149.5 -112q-2 -32 -2 -86z"/>
<glyph unicode="7" d="M143 1292v154h895v-135l-589 -1311h-199l618 1292h-725z"/>
<glyph unicode="8" d="M109 365q0 267 294 413q-249 147 -249 336q0 163 113 259.5t308 96.5q186 0 298 -84.5t112 -230.5q0 -116 -65 -203.5t-213 -165.5q193 -103 260 -193t67 -208q0 -192 -139.5 -301t-337.5 -109q-191 0 -319.5 107.5t-128.5 282.5zM283 389q0 -132 80 -207.5t221 -75.5 q117 0 201.5 67t84.5 167q0 90 -39 146.5t-124 108.5t-181 107q-127 -66 -185 -139t-58 -174zM313 1139q0 -129 267 -277q140 69 189.5 127t49.5 137q0 102 -68.5 158.5t-189.5 56.5q-105 0 -176.5 -58t-71.5 -144z"/>
<glyph unicode="9" d="M88 1001q0 206 128.5 337.5t336.5 131.5q239 0 359 -164.5t120 -492.5q0 -267 -72.5 -455t-208 -285.5t-309.5 -97.5q-163 0 -297 39l41 146q126 -39 248 -39q172 0 279 138t129 419q-155 -121 -350 -121q-184 0 -294 123.5t-110 320.5zM274 1012q0 -140 67 -229t187 -89 q80 0 167.5 42t150.5 112q2 41 2 96q0 157 -83 272t-216 115q-124 0 -199.5 -89.5t-75.5 -229.5z"/>
<glyph unicode=":" horiz-adv-x="475" d="M109 104q0 54 37.5 91.5t91.5 37.5q53 0 91 -37.5t38 -91.5q0 -53 -38 -91t-91 -38q-54 0 -91.5 38t-37.5 91zM109 760q0 54 37.5 91.5t91.5 37.5q53 0 91 -38t38 -91q0 -54 -38 -91.5t-91 -37.5q-54 0 -91.5 37.5t-37.5 91.5z"/>
<glyph unicode=";" horiz-adv-x="475" d="M129 104q0 55 36 92t89 37q61 0 97 -42t36 -115q0 -207 -184 -363l-64 56q99 87 125 215q-63 0 -99 32.5t-36 87.5zM150 760q0 53 37.5 91t91.5 38q53 0 91 -38t38 -91q0 -54 -38 -91.5t-91 -37.5q-54 0 -91.5 37.5t-37.5 91.5z"/>
<glyph unicode="&lt;" horiz-adv-x="987" d="M70 657v138l848 352v-139l-680 -283l680 -287v-139z"/>
<glyph unicode="=" horiz-adv-x="987" d="M70 475v139h848v-139h-848zM70 834v139h848v-139h-848z"/>
<glyph unicode="&gt;" horiz-adv-x="987" d="M70 299v139l680 287l-680 283v139l848 -352v-138z"/>
<glyph unicode="?" horiz-adv-x="899" d="M25 1370q176 100 381 100q181 0 291 -103t110 -282q0 -189 -107 -309t-311 -147v-228l-164 -47v412h76q159 0 245.5 83t86.5 230q0 117 -66 185.5t-176 68.5q-146 0 -305 -88zM199 98q0 51 36 87t87 36q50 0 86 -36t36 -87q0 -50 -36 -86.5t-86 -36.5q-51 0 -87 36.5 t-36 86.5z"/>
<glyph unicode="@" horiz-adv-x="1919" d="M94 438q0 461 265.5 746.5t703.5 285.5q335 0 535 -197t200 -523q0 -293 -152.5 -521.5t-406.5 -228.5q-69 0 -113.5 27t-46.5 79q-129 -106 -276 -106q-168 0 -262.5 110.5t-94.5 295.5q0 270 149 459.5t392 189.5q121 0 223 -51l140 26l-107 -807q0 -3 -2 -13t-2 -13 q0 -56 61 -56q128 0 243.5 184t115.5 402q0 283 -158 444.5t-440 161.5q-380 0 -605 -245.5t-225 -649.5q0 -322 207 -536.5t539 -214.5q262 0 439 91t298 277l123 -61q-152 -227 -353.5 -336t-506.5 -109q-387 0 -635 255.5t-248 633.5zM614 424q0 -137 60 -213t174 -76 q83 0 167.5 63t94.5 140l68 526q-94 60 -195 60q-176 0 -272.5 -140.5t-96.5 -359.5z"/>
<glyph unicode="A" horiz-adv-x="1366" d="M31 0l598 1436l123 34l583 -1470h-178l-201 504h-553l-210 -504h-162zM457 639h446l-219 549z"/>
<glyph unicode="B" horiz-adv-x="1157" d="M164 0v1446q165 12 297 12q299 0 414.5 -78.5t115.5 -230.5q0 -221 -248 -330q147 -17 244.5 -118t97.5 -246q0 -217 -157.5 -342t-489.5 -125q-135 0 -274 12zM344 129q42 -8 141 -8q190 0 296 79t106 226q0 120 -49 187.5t-134 88.5t-210 21q-59 0 -150 -16v-578z M344 842q242 14 352.5 81t110.5 207q0 102 -75.5 149.5t-231.5 47.5q-13 0 -156 -10v-475z"/>
<glyph unicode="C" horiz-adv-x="1270" d="M92 690q0 369 187 574.5t524 205.5q209 0 389 -77l-59 -144q-167 78 -340 78q-243 0 -372.5 -159t-129.5 -455q0 -277 122 -432.5t339 -155.5q107 0 194 25t195 86l71 -138q-192 -123 -477 -123q-298 0 -470.5 196t-172.5 519z"/>
<glyph unicode="D" horiz-adv-x="1425" d="M164 0v1446q160 12 444 12q348 0 536.5 -177t188.5 -507q0 -405 -204.5 -595.5t-647.5 -190.5q-234 0 -317 12zM344 131q47 -10 170 -10q621 0 621 624q0 295 -139.5 437.5t-424.5 142.5q-118 0 -227 -10v-1184z"/>
<glyph unicode="E" horiz-adv-x="1051" d="M164 0v1446h809l-47 -141h-582v-455h518l-43 -133h-475v-574h666v-143h-846z"/>
<glyph unicode="F" horiz-adv-x="1038" d="M164 0v1446h850l-47 -141h-623v-453h537l-43 -133h-494v-719h-180z"/>
<glyph unicode="G" horiz-adv-x="1403" d="M92 680q0 375 181 582.5t526 207.5q197 0 397 -77l-59 -144q-170 78 -326 78q-251 0 -385.5 -157t-134.5 -461q0 -277 124 -435.5t361 -158.5q67 0 164 23.5t156 56.5v423l174 50v-545q-118 -74 -250 -111t-279 -37q-309 0 -479 189t-170 516z"/>
<glyph unicode="H" horiz-adv-x="1427" d="M164 0v1446h180v-608h739v608h181v-1446h-181v692h-739v-692h-180z"/>
<glyph unicode="I" horiz-adv-x="532" d="M176 0v1446h180v-1446h-180z"/>
<glyph unicode="J" horiz-adv-x="516" d="M-23 -137q115 52 155 111t40 200v1272h180v-1294q0 -154 -75 -249t-238 -163z"/>
<glyph unicode="K" horiz-adv-x="1165" d="M164 0v1446h180v-582l569 582h220l-631 -637l663 -809h-223l-598 737v-737h-180z"/>
<glyph unicode="L" horiz-adv-x="1042" d="M164 0v1446h180v-1288h666v-158h-846z"/>
<glyph unicode="M" horiz-adv-x="1817" d="M123 0l121 1413l200 57l447 -1196l452 1133l222 63l129 -1470h-172l-99 1210l-471 -1185l-129 -37l-448 1216l-96 -1204h-156z"/>
<glyph unicode="N" horiz-adv-x="1393" d="M154 0v1421l174 49l753 -1163v1139h158v-1430l-147 -41l-781 1211v-1186h-157z"/>
<glyph unicode="O" horiz-adv-x="1493" d="M92 680q0 352 181.5 571t494.5 219q298 0 465.5 -193t167.5 -517q0 -347 -181.5 -566t-492.5 -219q-297 0 -466 191t-169 514zM289 711q0 -290 115 -443t331 -153q222 0 345.5 168t123.5 448q0 285 -113.5 442.5t-332.5 157.5q-225 0 -347 -168.5t-122 -451.5z"/>
<glyph unicode="P" horiz-adv-x="1149" d="M164 0v1446q72 6 157 9t183 3q286 0 429.5 -93t143.5 -278q0 -229 -188 -353.5t-545 -133.5v-600h-180zM344 733q255 9 398 97t143 243q0 126 -92.5 189t-276.5 63q-77 0 -172 -8v-584z"/>
<glyph unicode="Q" horiz-adv-x="1493" d="M92 680q0 350 180 570t496 220q298 0 465.5 -192.5t167.5 -517.5q0 -249 -99 -442t-284 -281q164 -121 342 -121q28 0 67 6v-143q-52 -12 -131 -12t-177.5 41.5t-272.5 177.5l-25 -4q-22 -5 -33 -5l-59 -2q-299 0 -468 192.5t-169 512.5zM289 711q0 -278 112 -437 t334 -159q217 0 343 165.5t126 450.5q0 287 -113.5 443.5t-332.5 156.5q-220 0 -344.5 -166t-124.5 -454z"/>
<glyph unicode="R" horiz-adv-x="1225" d="M164 0v1446q178 12 366 12q272 0 390 -88.5t118 -261.5q0 -309 -338 -399q448 -624 502 -709h-207l-479 676q-59 -9 -172 -14v-662h-180zM344 801q270 9 390 81t120 214q0 119 -77.5 175t-241.5 56q-17 0 -191 -10v-516z"/>
<glyph unicode="S" horiz-adv-x="1094" d="M70 55l55 152q189 -88 399 -88q136 0 220.5 64t84.5 179q0 93 -66.5 158.5t-227.5 134.5q-239 103 -339 197t-100 250q0 161 128.5 264.5t371.5 103.5q188 0 369 -69l-54 -146q-169 72 -342 72q-146 0 -220.5 -57t-74.5 -137q0 -62 21.5 -102.5t96.5 -89.5t235 -118 q209 -89 300 -192t91 -248q0 -194 -132.5 -301t-385.5 -107q-237 0 -430 80z"/>
<glyph unicode="T" horiz-adv-x="1204" d="M16 1303l47 143h1125l-47 -143h-449v-1303h-180v1303h-496z"/>
<glyph unicode="U" horiz-adv-x="1346" d="M154 596v850h180v-821q0 -307 86.5 -408.5t263.5 -101.5q200 0 285.5 99t85.5 407v825h157v-850q0 -371 -127.5 -496t-400.5 -125q-294 0 -412 135.5t-118 485.5z"/>
<glyph unicode="V" horiz-adv-x="1298" d="M31 1446h182l438 -1196l455 1196h162l-543 -1426l-154 -45z"/>
<glyph unicode="W" horiz-adv-x="1890" d="M29 1446h178l315 -1167l355 1157l124 34l347 -1191l352 1167h162l-447 -1428l-153 -43l-330 1129l-332 -1081l-164 -48z"/>
<glyph unicode="X" horiz-adv-x="1298" d="M33 0l524 750l-469 696h207l369 -545l380 545h183l-475 -676l522 -770h-207l-420 618l-432 -618h-182z"/>
<glyph unicode="Y" horiz-adv-x="1190" d="M29 1446h196l367 -631l393 631h178l-497 -795v-651h-181v659z"/>
<glyph unicode="Z" horiz-adv-x="1219" d="M92 0v111l795 1194h-787l47 141h1002v-43l-838 -1260h826l-47 -143h-998z"/>
<glyph unicode="[" horiz-adv-x="827" d="M250 -426v1958h491v-113h-327v-1732h327v-113h-491z"/>
<glyph unicode="\" horiz-adv-x="1026" d="M106 1559h152l703 -1584h-152z"/>
<glyph unicode="]" horiz-adv-x="827" d="M86 -313h328v1732h-328v113h492v-1958h-492v113z"/>
<glyph unicode="^" horiz-adv-x="961" d="M37 725l405 721h78l404 -721h-111l-332 592l-334 -592h-110z"/>
<glyph unicode="_" horiz-adv-x="1024" d="M-12 -154h1048v-102h-1048v102z"/>
<glyph unicode="`" horiz-adv-x="799" d="M61 1481h275l252 -285h-133z"/>
<glyph unicode="a" horiz-adv-x="1042" d="M86 262q0 92 43 164t129.5 120.5t218.5 71.5l254 46v32q0 121 -45.5 175.5t-167.5 54.5q-150 0 -309 -111l-76 121q76 57 185.5 92t213.5 35q192 0 277.5 -88t85.5 -268v-463q0 -125 57 -226l-147 -43q-40 61 -57 146q-169 -146 -340 -146q-149 0 -235.5 79t-86.5 208z M258 268q0 -77 46.5 -121.5t133.5 -44.5q123 0 293 150v291q-189 -39 -239.5 -50t-111.5 -41t-91.5 -75.5t-30.5 -108.5z"/>
<glyph unicode="b" d="M147 0v1511l164 48v-613q141 117 314 117q203 0 316.5 -140t113.5 -386q0 -251 -140 -400t-364 -149q-45 0 -84.5 3.5t-83.5 14.5l-88 23zM311 172q115 -49 203 -49q175 0 266.5 100t91.5 293q0 410 -268 410q-78 0 -157.5 -38t-135.5 -102v-614z"/>
<glyph unicode="c" horiz-adv-x="999" d="M86 487q0 284 140.5 430t381.5 146q158 0 297 -64l-59 -129q-128 58 -242 58q-168 0 -252 -106t-84 -318q0 -185 80 -289t227 -104q133 0 269 88l71 -123q-155 -101 -352 -101q-216 0 -346.5 136t-130.5 376z"/>
<glyph unicode="d" horiz-adv-x="1151" d="M86 502q0 251 137 406t332 155q167 0 274 -92v540l164 48v-1315q0 -143 60 -221l-154 -48q-39 62 -49 129q-139 -129 -307 -129q-207 0 -332 144.5t-125 382.5zM268 508q0 -184 80.5 -288.5t218.5 -104.5q95 0 178.5 66t83.5 132v500q-108 113 -262 113 q-140 0 -219.5 -111.5t-79.5 -306.5z"/>
<glyph unicode="e" horiz-adv-x="1022" d="M86 492q0 256 133 413.5t348 157.5q178 0 281.5 -113t103.5 -301v-147h-688q0 -180 87 -285.5t239 -105.5q126 0 262 88l72 -123q-157 -101 -353 -101q-227 0 -356 142t-129 375zM270 627h518v63q0 102 -65 172t-164 70q-116 0 -193.5 -82.5t-95.5 -222.5z"/>
<glyph unicode="f" horiz-adv-x="647" d="M23 915l45 123h151v105q0 416 338 416q119 0 211 -29l-41 -127q-81 27 -143 27q-112 0 -156.5 -66t-44.5 -215v-111h264l-41 -123h-223v-915h-164v915h-196z"/>
<glyph unicode="g" d="M86 510q0 260 141.5 406.5t364.5 146.5q138 0 252 -53l149 28v-940q0 -271 -118 -410t-334 -139q-198 0 -377 74l-12 146q80 -39 189 -61.5t196 -22.5q136 0 214 93t78 261v59q-133 -110 -286 -110q-206 0 -331.5 143t-125.5 379zM268 520q0 -186 80.5 -289.5 t224.5 -103.5q90 0 173 65t83 136v538q-115 62 -223 62q-162 0 -250 -105t-88 -303z"/>
<glyph unicode="h" horiz-adv-x="1161" d="M147 0v1511l164 48v-666q179 170 371 170q179 0 260.5 -89.5t81.5 -285.5v-688h-164v657q0 144 -46 205.5t-161 61.5q-173 0 -342 -205v-719h-164z"/>
<glyph unicode="i" horiz-adv-x="471" d="M133 1305q0 41 30.5 70.5t72.5 29.5q41 0 70.5 -29.5t29.5 -70.5q0 -42 -30 -72.5t-70 -30.5q-42 0 -72.5 30.5t-30.5 72.5zM154 0v1016l163 47v-1063h-163z"/>
<glyph unicode="j" horiz-adv-x="471" d="M-8 -338q107 54 134.5 116.5t27.5 184.5v1053l163 47v-1094q0 -177 -52.5 -266.5t-194.5 -153.5zM133 1305q0 41 30.5 70.5t72.5 29.5q41 0 70.5 -29.5t29.5 -70.5q0 -42 -30 -72.5t-70 -30.5q-42 0 -72.5 30.5t-30.5 72.5z"/>
<glyph unicode="k" horiz-adv-x="1032" d="M147 0v1511l164 48v-922l469 401h215l-518 -438l549 -600h-211l-504 557v-557h-164z"/>
<glyph unicode="l" horiz-adv-x="471" d="M154 0v1511l163 48v-1559h-163z"/>
<glyph unicode="m" horiz-adv-x="1792" d="M147 0v1016l164 47v-170q72 78 165 124t175 46q128 0 201.5 -46.5t105.5 -150.5q71 88 173 142.5t194 54.5q174 0 252 -90.5t78 -280.5v-692h-164v666q0 138 -41.5 198t-142.5 60q-102 0 -213 -92t-111 -183v-649h-164v676q0 132 -44 190t-142 58q-101 0 -211.5 -92 t-110.5 -183v-649h-164z"/>
<glyph unicode="n" horiz-adv-x="1161" d="M147 0v1016l164 47v-172q172 172 373 172q180 0 260 -91t80 -284v-688h-164v655q0 147 -46.5 208t-160.5 61q-108 0 -225 -90t-117 -193v-641h-164z"/>
<glyph unicode="o" horiz-adv-x="1145" d="M86 498q0 257 137.5 411t349.5 154q226 0 356 -137.5t130 -386.5q0 -253 -136.5 -408.5t-349.5 -155.5q-225 0 -356 136.5t-131 386.5zM268 518q0 -185 81 -296t222 -111q145 0 225.5 108.5t80.5 298.5q0 182 -78 296t-226 114q-144 0 -224.5 -109.5t-80.5 -300.5z"/>
<glyph unicode="p" horiz-adv-x="1151" d="M98 1016l154 47q37 -57 49 -129q139 129 307 129q207 0 332 -143.5t125 -382.5q0 -254 -136 -408t-337 -154q-171 0 -270 99v-477l-164 -48v1242q0 147 -60 225zM322 344q0 -104 67 -167.5t195 -63.5q144 0 221.5 114.5t77.5 311.5q0 184 -84 284.5t-209 100.5 q-137 0 -268 -142v-438z"/>
<glyph unicode="q" d="M86 498q0 177 62.5 304.5t179 194t264.5 66.5q136 0 252 -53l149 28v-1444l-164 -45v537q-131 -111 -286 -111q-209 0 -333 145t-124 378zM268 512q0 -189 80.5 -293t224.5 -104q88 0 172 64t84 145v542q-112 62 -223 62q-164 0 -251 -106t-87 -310z"/>
<glyph unicode="r" horiz-adv-x="721" d="M147 0v1016l144 47v-199q146 199 307 199q64 0 107 -10l-33 -158q-30 12 -84 12q-95 0 -186 -97.5t-91 -215.5v-594h-164z"/>
<glyph unicode="s" horiz-adv-x="909" d="M84 33l51 145q155 -63 301 -63q93 0 152 38.5t59 106.5q0 116 -188 191q-212 83 -282.5 154t-70.5 183q0 125 106.5 200t283.5 75q144 0 292 -59l-61 -130q-124 56 -244 56q-204 0 -204 -127q0 -58 54 -99t199 -98q158 -61 224.5 -139.5t66.5 -196.5q0 -147 -109 -221 t-286 -74q-180 0 -344 58z"/>
<glyph unicode="t" horiz-adv-x="686" d="M4 915l45 123h162v260l164 48v-308h293l-41 -123h-252v-606q0 -114 21 -155t83 -41q67 0 139 28l39 -125q-114 -41 -225 -41q-221 0 -221 283v657h-207z"/>
<glyph unicode="u" horiz-adv-x="1161" d="M137 352v664l164 47v-680q0 -143 44.5 -205.5t162.5 -62.5q111 0 226.5 90.5t115.5 195.5v615l164 47v-801q0 -133 59 -242l-158 -45q-36 60 -57 179q-179 -179 -373 -179q-185 0 -266.5 89t-81.5 288z"/>
<glyph unicode="v" horiz-adv-x="989" d="M8 1038h172l326 -800l321 800h154l-410 -1024l-131 -39z"/>
<glyph unicode="w" horiz-adv-x="1591" d="M12 1038h164l277 -782l286 727l109 31l278 -750l301 774h154l-401 -1032l-105 -31l-284 750l-285 -717l-115 -33z"/>
<glyph unicode="x" horiz-adv-x="1006" d="M4 0l412 528l-375 510h197l278 -383l299 383h178l-389 -499l397 -539h-196l-301 410l-320 -410h-180z"/>
<glyph unicode="y" horiz-adv-x="997" d="M25 1038h174l323 -739l314 739h153l-420 -1001q-82 -194 -194 -321t-230 -167l-79 111q234 90 372 438z"/>
<glyph unicode="z" horiz-adv-x="852" d="M45 0v117l551 790h-524l43 131h700v-80l-573 -823h606l-45 -135h-758z"/>
<glyph unicode="{" horiz-adv-x="596" d="M129 555q96 73 96 246q0 95 -39 196q-39 108 -39 201q0 188 187 361h160q-79 -70 -127 -166.5t-48 -182.5q0 -83 41 -188q39 -112 39 -207q0 -168 -116 -260q116 -103 116 -264q0 -102 -39 -207q-41 -118 -41 -188q0 -87 48 -182t127 -165h-162q-185 169 -185 359 q0 99 39 203q39 97 39 194q0 167 -96 250z"/>
<glyph unicode="|" horiz-adv-x="459" d="M154 -512v2048h151v-2048h-151z"/>
<glyph unicode="}" horiz-adv-x="596" d="M102 -451q79 70 126.5 165t47.5 182q0 88 -39.5 190.5t-39.5 204.5q0 161 116 264q-116 92 -116 260q0 100 41 207q38 112 38 188q0 86 -47.5 182.5t-126.5 166.5h160q187 -173 187 -361q0 -93 -39 -201q-39 -101 -39 -196q0 -173 96 -246q-96 -83 -96 -250 q0 -97 39 -194q39 -104 39 -203q0 -190 -185 -359h-162z"/>
<glyph unicode="~" horiz-adv-x="1116" d="M59 588v172q101 112 265 112q109 0 260 -67q160 -68 227 -68q120 0 246 119v-174q-114 -109 -264 -109q-86 0 -246 68q-151 66 -240 66q-127 0 -248 -119z"/>
<glyph unicode="¡" horiz-adv-x="504" d="M129 940q0 51 36 87t87 36q50 0 86.5 -36.5t36.5 -86.5t-36.5 -86.5t-86.5 -36.5q-51 0 -87 36.5t-36 86.5zM184 -408v1047l164 45v-1049z"/>
<glyph unicode="¢" horiz-adv-x="999" d="M86 487q0 269 148.5 422.5t383.5 153.5h5l51 227h127l-53 -237q87 -16 157 -49l-47 -142q-60 33 -141 53l-182 -798q31 -4 51 -4q122 0 258 86l71 -123q-162 -101 -342 -101q-26 0 -69 5l-51 -228h-127l57 254q-144 53 -220.5 177.5t-76.5 303.5zM268 504 q0 -243 150 -344l174 768q-160 -9 -242 -119.5t-82 -304.5z"/>
<glyph unicode="£" horiz-adv-x="1182" d="M145 670l43 118h140q-58 268 -58 289q0 188 128 290.5t343 102.5q168 0 330 -63l-51 -139q-145 65 -277 65q-297 0 -297 -239q0 -51 62 -299h364q-20 -77 -34 -119h-308q25 -151 25 -195q0 -213 -129 -327h670l-47 -154h-877v154h23q89 0 138.5 66.5t49.5 168.5 q0 142 -29 281h-209z"/>
<glyph unicode="¤" d="M84 315l184 185q-75 101 -75 227q0 127 75 227l-184 185l74 75l184 -184q103 76 227 76q126 0 230 -76l184 184l74 -75l-185 -185q76 -103 76 -227t-76 -227l185 -185l-74 -75l-184 184q-101 -74 -230 -74q-126 0 -227 74l-184 -184zM301 727q0 -112 78 -191t190 -79 q114 0 193.5 78.5t79.5 191.5q0 114 -83 193t-190 79q-112 0 -190 -79.5t-78 -192.5z"/>
<glyph unicode="¥" d="M51 1446h197l317 -631l344 631h178l-428 -760h281v-121h-301v-123h301v-120h-301v-322h-180v322h-279v120h279v123h-279v121h264z"/>
<glyph unicode="¦" horiz-adv-x="459" d="M154 -358v716h151v-716h-151zM154 666v716h151v-716h-151z"/>
<glyph unicode="§" horiz-adv-x="1012" d="M82 627q0 70 45 138.5t129 117.5q-152 89 -152 262q0 136 109 230.5t330 94.5q177 0 338 -67l-56 -133q-138 61 -280 61q-126 0 -199.5 -45.5t-73.5 -124.5q0 -80 60.5 -124t255.5 -130q204 -89 273 -171t69 -193q0 -71 -45 -140t-129 -116q151 -91 151 -262 q0 -145 -113.5 -235.5t-324.5 -90.5q-180 0 -340 63l53 136q148 -60 285 -60q126 0 199 45.5t73 124.5q0 81 -60.5 125t-254.5 129q-205 90 -273.5 172.5t-68.5 192.5zM248 641q0 -77 71.5 -129.5t303.5 -149.5q141 71 141 168q0 74 -72 127t-303 150q-141 -67 -141 -166z "/>
<glyph unicode="¨" horiz-adv-x="799" d="M74 1303q0 44 31 75t75 31q45 0 76 -31t31 -75q0 -45 -31 -76t-76 -31q-44 0 -75 31t-31 76zM512 1303q0 44 31 75t75 31q45 0 76 -31t31 -75q0 -45 -31 -76t-76 -31q-44 0 -75 31t-31 76z"/>
<glyph unicode="©" horiz-adv-x="1688" d="M86 713q0 311 223 534t535 223t535 -223t223 -534q0 -203 -102 -379t-278 -277.5t-378 -101.5q-312 0 -535 223t-223 535zM242 715q0 -251 176 -427.5t426 -176.5q249 0 425.5 177t176.5 427t-176 425t-426 175t-426 -175.5t-176 -424.5zM465 682q0 204 118.5 321 t325.5 117q101 0 213 -49q-20 -63 -41 -104q-99 47 -190 47q-133 0 -208 -84.5t-75 -235.5q0 -144 65 -222.5t183 -78.5q95 0 227 66l56 -103q-133 -75 -291 -75q-178 0 -280.5 110t-102.5 291z"/>
<glyph unicode="ª" horiz-adv-x="651" d="M72 971q0 92 69.5 154t321.5 100v12q0 68 -24 98.5t-95 30.5q-107 0 -207 -68l-57 88q122 84 272 84q230 0 230 -227v-282q0 -89 43 -142l-111 -35q-30 42 -39 82q-100 -80 -199 -80q-94 0 -149 51t-55 134zM197 975q0 -90 98 -90q69 0 168 84v161q-197 -36 -231.5 -72.5 t-34.5 -82.5z"/>
<glyph unicode="«" horiz-adv-x="1210" d="M63 518l494 520h186l-495 -520l491 -518h-188zM512 518l489 520h187l-492 -520l490 -518h-185z"/>
<glyph unicode="¬" horiz-adv-x="987" d="M70 836v139h850v-500h-140v361h-710z"/>
<glyph unicode="­" horiz-adv-x="791" d="M133 434v170h524v-170h-524z"/>
<glyph unicode="®" horiz-adv-x="1688" d="M86 713q0 311 223 534t535 223t535 -223t223 -534q0 -203 -102 -379t-278 -277.5t-378 -101.5q-312 0 -535 223t-223 535zM242 715q0 -251 176 -427.5t426 -176.5q249 0 425.5 177t176.5 427t-176 425t-426 175t-426 -175.5t-176 -424.5zM567 295v813q109 8 228 8 q168 0 238.5 -51t70.5 -145q0 -162 -195 -213q226 -300 303 -412h-157l-287 391l-68 -6v-385h-133zM700 780q269 14 269 133q0 55 -41 78t-131 23q-68 0 -97 -2v-232z"/>
<glyph unicode="¯" horiz-adv-x="1024" d="M-12 1542v103h1048v-103h-1048z"/>
<glyph unicode="°" horiz-adv-x="821" d="M137 1198q0 113 79.5 192.5t193.5 79.5q112 0 193 -80t81 -192q0 -114 -81 -194t-193 -80q-113 0 -193 80t-80 194zM272 1198q0 -56 41.5 -97.5t98.5 -41.5q56 0 96.5 41t40.5 98t-40.5 97t-96.5 40q-57 0 -98.5 -40.5t-41.5 -96.5z"/>
<glyph unicode="±" horiz-adv-x="987" d="M70 18v140h848v-140h-848zM70 653v140h354v354h139v-354h355v-140h-355v-354h-139v354h-354z"/>
<glyph unicode="²" horiz-adv-x="864" d="M106 698v72q350 272 423 355.5t73 136.5q0 108 -153 108q-133 0 -279 -78l-41 97q158 81 332 81q134 0 206 -52t72 -148q0 -98 -144 -233.5t-271 -227.5h438v-111h-656z"/>
<glyph unicode="³" horiz-adv-x="864" d="M106 725l33 102q122 -39 230 -39q119 0 184 37t65 90q0 68 -65 97.5t-205 29.5h-117l25 99h106q99 0 160.5 36.5t61.5 92.5q0 45 -45 72.5t-129 27.5q-135 0 -254 -59l-31 94q140 65 285 65q305 0 305 -186q0 -125 -154 -180q92 -15 142.5 -65.5t50.5 -125.5 q0 -98 -99.5 -162.5t-292.5 -64.5q-128 0 -256 39z"/>
<glyph unicode="´" horiz-adv-x="799" d="M217 1196l252 285h274l-393 -285h-133z"/>
<glyph unicode="µ" horiz-adv-x="1161" d="M137 -451v1467l164 47v-639q0 -155 51.5 -232t155.5 -77q111 0 226.5 90.5t115.5 195.5v615l164 47v-817q0 -129 57 -228l-147 -43q-49 72 -64 181q-167 -181 -354 -181q-122 0 -205 50v-428z"/>
<glyph unicode="¶" horiz-adv-x="1106" d="M0 1024q0 183 114.5 302.5t358.5 119.5h633v-174h-143v-1682h-168v1682h-224v-1682h-168v1026q-194 13 -298.5 126.5t-104.5 281.5z"/>
<glyph unicode="·" horiz-adv-x="475" d="M109 723q0 54 37.5 91.5t91.5 37.5q53 0 91 -38t38 -91q0 -54 -38 -91.5t-91 -37.5q-54 0 -91.5 37.5t-37.5 91.5z"/>
<glyph unicode="¸" horiz-adv-x="799" d="M168 -426l10 111q78 -27 146 -27q58 0 94.5 20t36.5 58q0 46 -50 70t-124 24l63 182l121 2l-45 -116q178 -28 178 -172q0 -82 -68 -129.5t-202 -47.5q-73 0 -160 25z"/>
<glyph unicode="¹" horiz-adv-x="864" d="M205 1391l239 79h93v-772h-125v645l-191 -63z"/>
<glyph unicode="º" horiz-adv-x="715" d="M51 1116q0 159 86.5 256.5t220.5 97.5q142 0 224 -87t82 -242q0 -159 -86 -257t-220 -98q-141 0 -224 87t-83 243zM182 1128q0 -109 46.5 -174t127.5 -65q83 0 129.5 64t46.5 175q0 108 -45 174t-129 66q-83 0 -129.5 -63.5t-46.5 -176.5z"/>
<glyph unicode="»" horiz-adv-x="1210" d="M23 1038h186l489 -520l-489 -518h-184l489 518zM467 1038h186l494 -520l-488 -518h-188l492 518z"/>
<glyph unicode="¼" horiz-adv-x="1849" d="M205 1391l239 79h93v-772h-125v645l-191 -63zM372 -25l840 1495h137l-840 -1495h-137zM938 184v105l461 483h98v-477h150v-111h-150v-184h-121v184h-438zM1077 295h299v313z"/>
<glyph unicode="½" horiz-adv-x="1849" d="M205 1391l239 79h93v-772h-125v645l-191 -63zM376 -25l840 1495h137l-840 -1495h-137zM1082 -2v72q350 272 423 355.5t73 136.5q0 108 -153 108q-133 0 -279 -78l-41 97q158 81 332 81q134 0 206 -52t72 -148q0 -98 -144 -233.5t-271 -227.5h438v-111h-656z"/>
<glyph unicode="¾" horiz-adv-x="1849" d="M106 725l33 102q122 -39 230 -39q119 0 184 37t65 90q0 68 -65 97.5t-205 29.5h-117l25 99h106q99 0 160.5 36.5t61.5 92.5q0 45 -45 72.5t-129 27.5q-135 0 -254 -59l-31 94q140 65 285 65q305 0 305 -186q0 -125 -154 -180q92 -15 142.5 -65.5t50.5 -125.5 q0 -98 -99.5 -162.5t-292.5 -64.5q-128 0 -256 39zM436 -25l840 1495h137l-840 -1495h-137zM938 184v105l461 483h98v-477h150v-111h-150v-184h-121v184h-438zM1077 295h299v313z"/>
<glyph unicode="¿" horiz-adv-x="899" d="M53 -47q0 403 418 457v229l164 45v-412h-76q-159 0 -245.5 -82.5t-86.5 -230.5q0 -112 66 -183t176 -71q151 0 305 88l52 -125q-174 -100 -371 -100q-180 0 -291 103.5t-111 281.5zM416 940q0 51 36 87t87 36q50 0 86.5 -36.5t36.5 -86.5q0 -51 -36.5 -87t-86.5 -36 q-51 0 -87 36.5t-36 86.5z"/>
<glyph unicode="À" horiz-adv-x="1366" d="M31 0l598 1436l123 34l583 -1470h-178l-201 504h-553l-210 -504h-162zM457 639h446l-219 549zM346 1831h275l252 -285h-133z"/>
<glyph unicode="Á" horiz-adv-x="1366" d="M31 0l598 1436l123 34l583 -1470h-178l-201 504h-553l-210 -504h-162zM457 639h446l-219 549zM502 1546l252 285h274l-393 -285h-133z"/>
<glyph unicode="Â" horiz-adv-x="1366" d="M31 0l598 1436l123 34l583 -1470h-178l-201 504h-553l-210 -504h-162zM457 639h446l-219 549zM314 1546l272 285h199l272 -285h-149l-224 190l-221 -190h-149z"/>
<glyph unicode="Ã" horiz-adv-x="1366" d="M31 0l598 1436l123 34l583 -1470h-178l-201 504h-553l-210 -504h-162zM457 639h446l-219 549zM338 1547q0 113 57.5 171t139.5 58q84 0 164 -49q85 -51 127 -51q33 0 54 29.5t21 70.5h132q0 -115 -58.5 -172t-138.5 -57q-81 0 -164 51q-82 49 -127 49q-33 0 -54.5 -29.5 t-21.5 -70.5h-131z"/>
<glyph unicode="Ä" horiz-adv-x="1366" d="M31 0l598 1436l123 34l583 -1470h-178l-201 504h-553l-210 -504h-162zM457 639h446l-219 549zM359 1653q0 44 31 75t75 31q45 0 76 -31t31 -75q0 -45 -31 -76t-76 -31q-44 0 -75 31t-31 76zM797 1653q0 44 31 75t75 31q45 0 76 -31t31 -75q0 -45 -31 -76t-76 -31 q-44 0 -75 31t-31 76z"/>
<glyph unicode="Å" horiz-adv-x="1366" d="M31 0l598 1436l123 34l583 -1470h-178l-201 504h-553l-210 -504h-162zM457 639h446l-219 549zM447 1763q0 98 70 168t167 70q98 0 168 -70t70 -168t-69.5 -167.5t-168.5 -69.5q-97 0 -167 69.5t-70 167.5zM566 1763q0 -49 34.5 -84t83.5 -35t84 35t35 84t-35 84t-84 35 t-83.5 -35t-34.5 -84z"/>
<glyph unicode="Æ" horiz-adv-x="1741" d="M10 0l842 1446h811l-47 -141h-582v-455h518l-43 -133h-475v-574h666v-143h-846v463h-410l-268 -463h-166zM522 598h332v580z"/>
<glyph unicode="Ç" horiz-adv-x="1270" d="M92 690q0 365 200 572.5t552 207.5q172 0 348 -77q-30 -86 -59 -144q-153 78 -322 78q-243 0 -381.5 -162.5t-138.5 -451.5q0 -277 122 -432.5t339 -155.5q181 0 389 111l71 -138q-189 -107 -434 -121l-30 -79q178 -29 178 -172q0 -84 -70.5 -130.5t-200.5 -46.5 q-75 0 -159 25l10 111q78 -27 145 -27q58 0 94.5 20t36.5 58q0 44 -47.5 69t-126.5 25l51 150q-271 27 -419 220t-148 490z"/>
<glyph unicode="È" horiz-adv-x="1051" d="M164 0v1446h809l-47 -141h-582v-455h518l-43 -133h-475v-574h666v-143h-846zM188 1831h275l252 -285h-133z"/>
<glyph unicode="É" horiz-adv-x="1051" d="M164 0v1446h809l-47 -141h-582v-455h518l-43 -133h-475v-574h666v-143h-846zM344 1546l252 285h274l-393 -285h-133z"/>
<glyph unicode="Ê" horiz-adv-x="1051" d="M164 0v1446h809l-47 -141h-582v-455h518l-43 -133h-475v-574h666v-143h-846zM156 1546l272 285h199l272 -285h-149l-224 190l-221 -190h-149z"/>
<glyph unicode="Ë" horiz-adv-x="1051" d="M164 0v1446h809l-47 -141h-582v-455h518l-43 -133h-475v-574h666v-143h-846zM201 1653q0 44 31 75t75 31q45 0 76 -31t31 -75q0 -45 -31 -76t-76 -31q-44 0 -75 31t-31 76zM639 1653q0 44 31 75t75 31q45 0 76 -31t31 -75q0 -45 -31 -76t-76 -31q-44 0 -75 31t-31 76z "/>
<glyph unicode="Ì" horiz-adv-x="532" d="M176 0v1446h180v-1446h-180zM-72 1831h275l252 -285h-133z"/>
<glyph unicode="Í" horiz-adv-x="532" d="M176 0v1446h180v-1446h-180zM84 1546l252 285h274l-393 -285h-133z"/>
<glyph unicode="Î" horiz-adv-x="532" d="M176 0v1446h180v-1446h-180zM-104 1546l272 285h199l272 -285h-149l-224 190l-221 -190h-149z"/>
<glyph unicode="Ï" horiz-adv-x="532" d="M176 0v1446h180v-1446h-180zM-59 1653q0 44 31 75t75 31q45 0 76 -31t31 -75q0 -45 -31 -76t-76 -31q-44 0 -75 31t-31 76zM379 1653q0 44 31 75t75 31q45 0 76 -31t31 -75q0 -45 -31 -76t-76 -31q-44 0 -75 31t-31 76z"/>
<glyph unicode="Ð" horiz-adv-x="1425" d="M0 653v140h164v653q160 12 444 12q348 0 536.5 -177t188.5 -507q0 -405 -204.5 -595.5t-647.5 -190.5q-234 0 -317 12v653h-164zM344 131q47 -10 170 -10q621 0 621 624q0 295 -139.5 437.5t-424.5 142.5q-118 0 -227 -10v-522h391v-140h-391v-522z"/>
<glyph unicode="Ñ" horiz-adv-x="1393" d="M154 0v1421l174 49l753 -1163v1139h158v-1430l-147 -41l-781 1211v-1186h-157zM340 1547q0 113 57.5 171t139.5 58q84 0 164 -49q85 -51 127 -51q33 0 54 29.5t21 70.5h132q0 -115 -58.5 -172t-138.5 -57q-81 0 -164 51q-82 49 -127 49q-33 0 -54.5 -29.5t-21.5 -70.5 h-131z"/>
<glyph unicode="Ò" horiz-adv-x="1493" d="M92 680q0 352 181.5 571t494.5 219q298 0 465.5 -193t167.5 -517q0 -347 -181.5 -566t-492.5 -219q-297 0 -466 191t-169 514zM289 711q0 -290 115 -443t331 -153q222 0 345.5 168t123.5 448q0 285 -113.5 442.5t-332.5 157.5q-225 0 -347 -168.5t-122 -451.5zM410 1831 h275l252 -285h-133z"/>
<glyph unicode="Ó" horiz-adv-x="1493" d="M92 680q0 352 181.5 571t494.5 219q298 0 465.5 -193t167.5 -517q0 -347 -181.5 -566t-492.5 -219q-297 0 -466 191t-169 514zM289 711q0 -290 115 -443t331 -153q222 0 345.5 168t123.5 448q0 285 -113.5 442.5t-332.5 157.5q-225 0 -347 -168.5t-122 -451.5zM565 1546 l252 285h274l-393 -285h-133z"/>
<glyph unicode="Ô" horiz-adv-x="1493" d="M92 680q0 352 181.5 571t494.5 219q298 0 465.5 -193t167.5 -517q0 -347 -181.5 -566t-492.5 -219q-297 0 -466 191t-169 514zM289 711q0 -290 115 -443t331 -153q222 0 345.5 168t123.5 448q0 285 -113.5 442.5t-332.5 157.5q-225 0 -347 -168.5t-122 -451.5zM377 1546 l272 285h199l272 -285h-149l-224 190l-221 -190h-149z"/>
<glyph unicode="Õ" horiz-adv-x="1493" d="M92 680q0 352 181.5 571t494.5 219q298 0 465.5 -193t167.5 -517q0 -347 -181.5 -566t-492.5 -219q-297 0 -466 191t-169 514zM289 711q0 -290 115 -443t331 -153q222 0 345.5 168t123.5 448q0 285 -113.5 442.5t-332.5 157.5q-225 0 -347 -168.5t-122 -451.5zM401 1547 q0 113 57.5 171t139.5 58q84 0 164 -49q85 -51 127 -51q33 0 54 29.5t21 70.5h132q0 -115 -58.5 -172t-138.5 -57q-81 0 -164 51q-82 49 -127 49q-33 0 -54.5 -29.5t-21.5 -70.5h-131z"/>
<glyph unicode="Ö" horiz-adv-x="1493" d="M92 680q0 352 181.5 571t494.5 219q298 0 465.5 -193t167.5 -517q0 -347 -181.5 -566t-492.5 -219q-297 0 -466 191t-169 514zM289 711q0 -290 115 -443t331 -153q222 0 345.5 168t123.5 448q0 285 -113.5 442.5t-332.5 157.5q-225 0 -347 -168.5t-122 -451.5zM422 1653 q0 44 31 75t75 31q45 0 76 -31t31 -75q0 -45 -31 -76t-76 -31q-44 0 -75 31t-31 76zM860 1653q0 44 31 75t75 31q45 0 76 -31t31 -75q0 -45 -31 -76t-76 -31q-44 0 -75 31t-31 76z"/>
<glyph unicode="×" horiz-adv-x="987" d="M68 1049l98 98l328 -324l323 328l101 -100l-326 -326l328 -326l-99 -98l-327 324l-324 -328l-100 100l325 326z"/>
<glyph unicode="Ø" horiz-adv-x="1493" d="M92 39l139 162q-139 187 -139 479q0 352 181.5 571t494.5 219q263 0 428 -153l133 153l74 -63l-141 -164q139 -189 139 -483q0 -347 -181.5 -566t-492.5 -219q-263 0 -428 152l-129 -152zM289 711q0 -223 67 -365l725 838q-113 147 -323 147q-225 0 -347 -168.5 t-122 -451.5zM412 256q116 -141 323 -141q222 0 345.5 168t123.5 448q0 213 -69 365z"/>
<glyph unicode="Ù" horiz-adv-x="1346" d="M154 596v850h180v-821q0 -307 86.5 -408.5t263.5 -101.5q200 0 285.5 99t85.5 407v825h157v-850q0 -371 -127.5 -496t-400.5 -125q-294 0 -412 135.5t-118 485.5zM336 1831h275l252 -285h-133z"/>
<glyph unicode="Ú" horiz-adv-x="1346" d="M154 596v850h180v-821q0 -307 86.5 -408.5t263.5 -101.5q200 0 285.5 99t85.5 407v825h157v-850q0 -371 -127.5 -496t-400.5 -125q-294 0 -412 135.5t-118 485.5zM492 1546l252 285h274l-393 -285h-133z"/>
<glyph unicode="Û" horiz-adv-x="1346" d="M154 596v850h180v-821q0 -307 86.5 -408.5t263.5 -101.5q200 0 285.5 99t85.5 407v825h157v-850q0 -371 -127.5 -496t-400.5 -125q-294 0 -412 135.5t-118 485.5zM304 1546l272 285h199l272 -285h-149l-224 190l-221 -190h-149z"/>
<glyph unicode="Ü" horiz-adv-x="1346" d="M154 596v850h180v-821q0 -307 86.5 -408.5t263.5 -101.5q200 0 285.5 99t85.5 407v825h157v-850q0 -371 -127.5 -496t-400.5 -125q-294 0 -412 135.5t-118 485.5zM348 1653q0 44 31 75t75 31q45 0 76 -31t31 -75q0 -45 -31 -76t-76 -31q-44 0 -75 31t-31 76zM786 1653 q0 44 31 75t75 31q45 0 76 -31t31 -75q0 -45 -31 -76t-76 -31q-44 0 -75 31t-31 76z"/>
<glyph unicode="Ý" horiz-adv-x="1190" d="M29 1446h196l367 -631l393 631h178l-497 -795v-651h-181v659zM414 1546l252 285h274l-393 -285h-133z"/>
<glyph unicode="Þ" horiz-adv-x="1149" d="M164 0v1446h180v-322q85 6 160 6q312 0 442.5 -91.5t130.5 -258.5q0 -228 -172 -338.5t-561 -111.5v-330h-180zM344 463q198 1 313 33.5t171.5 99t56.5 168.5q0 130 -93.5 181.5t-275.5 51.5q-77 0 -172 -8v-526z"/>
<glyph unicode="ß" horiz-adv-x="1303" d="M26 915l42 123h151v105q0 199 90.5 307.5t300.5 108.5q148 0 253.5 -72.5t105.5 -181.5q0 -63 -20 -115.5t-103 -151.5q-68 -79 -91.5 -127t-23.5 -94q0 -65 51 -106.5t195 -104.5q160 -70 220 -146t60 -190q0 -142 -101 -218.5t-284 -76.5q-161 0 -321 60l51 139 q154 -59 279 -59q91 0 145.5 38t54.5 107q0 61 -41 105t-137 86q-211 89 -275.5 157t-64.5 180q0 125 158 318q46 56 62 93.5t16 92.5q0 59 -52 98.5t-139 39.5q-119 0 -172 -66.5t-53 -214.5v-1149h-164v915h-193z"/>
<glyph unicode="à" horiz-adv-x="1042" d="M86 262q0 92 43 164t129.5 120.5t218.5 71.5l254 46v32q0 121 -45.5 175.5t-167.5 54.5q-150 0 -309 -111l-76 121q76 57 185.5 92t213.5 35q192 0 277.5 -88t85.5 -268v-463q0 -125 57 -226l-147 -43q-40 61 -57 146q-169 -146 -340 -146q-149 0 -235.5 79t-86.5 208z M258 268q0 -77 46.5 -121.5t133.5 -44.5q123 0 293 150v291q-189 -39 -239.5 -50t-111.5 -41t-91.5 -75.5t-30.5 -108.5zM184 1481h275l252 -285h-133z"/>
<glyph unicode="á" horiz-adv-x="1042" d="M86 262q0 92 43 164t129.5 120.5t218.5 71.5l254 46v32q0 121 -45.5 175.5t-167.5 54.5q-150 0 -309 -111l-76 121q76 57 185.5 92t213.5 35q192 0 277.5 -88t85.5 -268v-463q0 -125 57 -226l-147 -43q-40 61 -57 146q-169 -146 -340 -146q-149 0 -235.5 79t-86.5 208z M258 268q0 -77 46.5 -121.5t133.5 -44.5q123 0 293 150v291q-189 -39 -239.5 -50t-111.5 -41t-91.5 -75.5t-30.5 -108.5zM340 1196l252 285h274l-393 -285h-133z"/>
<glyph unicode="â" horiz-adv-x="1042" d="M86 262q0 92 43 164t129.5 120.5t218.5 71.5l254 46v32q0 121 -45.5 175.5t-167.5 54.5q-150 0 -309 -111l-76 121q76 57 185.5 92t213.5 35q192 0 277.5 -88t85.5 -268v-463q0 -125 57 -226l-147 -43q-40 61 -57 146q-169 -146 -340 -146q-149 0 -235.5 79t-86.5 208z M258 268q0 -77 46.5 -121.5t133.5 -44.5q123 0 293 150v291q-189 -39 -239.5 -50t-111.5 -41t-91.5 -75.5t-30.5 -108.5zM152 1196l272 285h199l272 -285h-149l-224 190l-221 -190h-149z"/>
<glyph unicode="ã" horiz-adv-x="1042" d="M86 262q0 92 43 164t129.5 120.5t218.5 71.5l254 46v32q0 121 -45.5 175.5t-167.5 54.5q-150 0 -309 -111l-76 121q76 57 185.5 92t213.5 35q192 0 277.5 -88t85.5 -268v-463q0 -125 57 -226l-147 -43q-40 61 -57 146q-169 -146 -340 -146q-149 0 -235.5 79t-86.5 208z M258 268q0 -77 46.5 -121.5t133.5 -44.5q123 0 293 150v291q-189 -39 -239.5 -50t-111.5 -41t-91.5 -75.5t-30.5 -108.5zM176 1196q0 113 57.5 171t139.5 58q84 0 164 -49q85 -51 127 -51q33 0 54 29.5t21 70.5h132q0 -115 -58.5 -172t-138.5 -57q-81 0 -164 51 q-82 49 -127 49q-33 0 -54.5 -29.5t-21.5 -70.5h-131z"/>
<glyph unicode="ä" horiz-adv-x="1042" d="M86 262q0 92 43 164t129.5 120.5t218.5 71.5l254 46v32q0 121 -45.5 175.5t-167.5 54.5q-150 0 -309 -111l-76 121q76 57 185.5 92t213.5 35q192 0 277.5 -88t85.5 -268v-463q0 -125 57 -226l-147 -43q-40 61 -57 146q-169 -146 -340 -146q-149 0 -235.5 79t-86.5 208z M258 268q0 -77 46.5 -121.5t133.5 -44.5q123 0 293 150v291q-189 -39 -239.5 -50t-111.5 -41t-91.5 -75.5t-30.5 -108.5zM197 1303q0 44 31 75t75 31q45 0 76 -31t31 -75q0 -45 -31 -76t-76 -31q-44 0 -75 31t-31 76zM635 1303q0 44 31 75t75 31q45 0 76 -31t31 -75 q0 -45 -31 -76t-76 -31q-44 0 -75 31t-31 76z"/>
<glyph unicode="å" horiz-adv-x="1042" d="M86 262q0 92 43 164t129.5 120.5t218.5 71.5l254 46v32q0 121 -45.5 175.5t-167.5 54.5q-150 0 -309 -111l-76 121q76 57 185.5 92t213.5 35q192 0 277.5 -88t85.5 -268v-463q0 -125 57 -226l-147 -43q-40 61 -57 146q-169 -146 -340 -146q-149 0 -235.5 79t-86.5 208z M258 268q0 -77 46.5 -121.5t133.5 -44.5q123 0 293 150v291q-189 -39 -239.5 -50t-111.5 -41t-91.5 -75.5t-30.5 -108.5zM285 1413q0 98 70 168t167 70q98 0 168 -70t70 -168t-69.5 -167.5t-168.5 -69.5q-97 0 -167 69.5t-70 167.5zM404 1413q0 -49 34.5 -84t83.5 -35t84 35 t35 84t-35 84t-84 35t-83.5 -35t-34.5 -84z"/>
<glyph unicode="æ" horiz-adv-x="1669" d="M86 262q0 99 46.5 171t138.5 119t226 70l234 42v32q0 127 -49.5 178.5t-163.5 51.5q-77 0 -162 -30t-147 -81l-76 121q179 127 399 127q248 0 322 -168q127 168 344 168q178 0 281.5 -113.5t103.5 -300.5v-147h-688q0 -177 86 -284t240 -107q124 0 262 88l71 -121 q-163 -103 -352 -103q-126 0 -215 42t-170 155q-139 -115 -229 -156t-180 -41q-145 0 -233.5 77t-88.5 210zM258 268q0 -80 49 -123t131 -43q137 0 326 179q-33 86 -33 254v8q-248 -51 -308.5 -70t-112.5 -70.5t-52 -134.5zM901 627h518v63q0 100 -65 171t-164 71 q-117 0 -194 -82t-95 -223z"/>
<glyph unicode="ç" horiz-adv-x="999" d="M86 487q0 269 148.5 422.5t383.5 153.5q163 0 287 -64l-59 -129q-111 58 -228 58q-170 0 -260 -110t-90 -314q0 -172 82.5 -281.5t235.5 -109.5q123 0 258 86l71 -123q-148 -91 -301 -99l-30 -79q178 -26 178 -172q0 -84 -70 -130.5t-200 -46.5q-70 0 -160 25l10 111 q78 -27 145 -27q58 0 94.5 20t36.5 58q0 46 -49 70t-125 24l54 150q-195 25 -303.5 159t-108.5 348z"/>
<glyph unicode="è" horiz-adv-x="1022" d="M86 492q0 256 133 413.5t348 157.5q178 0 281.5 -113t103.5 -301v-147h-688q0 -180 87 -285.5t239 -105.5q126 0 262 88l72 -123q-157 -101 -353 -101q-227 0 -356 142t-129 375zM270 627h518v63q0 102 -65 172t-164 70q-116 0 -193.5 -82.5t-95.5 -222.5zM225 1481h275 l252 -285h-133z"/>
<glyph unicode="é" horiz-adv-x="1022" d="M86 492q0 256 133 413.5t348 157.5q178 0 281.5 -113t103.5 -301v-147h-688q0 -180 87 -285.5t239 -105.5q126 0 262 88l72 -123q-157 -101 -353 -101q-227 0 -356 142t-129 375zM270 627h518v63q0 102 -65 172t-164 70q-116 0 -193.5 -82.5t-95.5 -222.5zM381 1196 l252 285h274l-393 -285h-133z"/>
<glyph unicode="ê" horiz-adv-x="1022" d="M86 492q0 256 133 413.5t348 157.5q178 0 281.5 -113t103.5 -301v-147h-688q0 -180 87 -285.5t239 -105.5q126 0 262 88l72 -123q-157 -101 -353 -101q-227 0 -356 142t-129 375zM270 627h518v63q0 102 -65 172t-164 70q-116 0 -193.5 -82.5t-95.5 -222.5zM183 1196 l272 285h199l272 -285h-149l-224 190l-221 -190h-149z"/>
<glyph unicode="ë" horiz-adv-x="1022" d="M86 492q0 256 133 413.5t348 157.5q178 0 281.5 -113t103.5 -301v-147h-688q0 -180 87 -285.5t239 -105.5q126 0 262 88l72 -123q-157 -101 -353 -101q-227 0 -356 142t-129 375zM270 627h518v63q0 102 -65 172t-164 70q-116 0 -193.5 -82.5t-95.5 -222.5zM228 1303 q0 44 31 75t75 31q45 0 76 -31t31 -75q0 -45 -31 -76t-76 -31q-44 0 -75 31t-31 76zM666 1303q0 44 31 75t75 31q45 0 76 -31t31 -75q0 -45 -31 -76t-76 -31q-44 0 -75 31t-31 76z"/>
<glyph unicode="ì" horiz-adv-x="471" d="M154 0v1016l163 47v-1063h-163zM-102 1481h275l252 -285h-133z"/>
<glyph unicode="í" horiz-adv-x="471" d="M154 0v1016l163 47v-1063h-163zM53 1196l252 285h274l-393 -285h-133z"/>
<glyph unicode="î" horiz-adv-x="471" d="M154 0v1016l163 47v-1063h-163zM-135 1196l272 285h199l272 -285h-149l-224 190l-221 -190h-149z"/>
<glyph unicode="ï" horiz-adv-x="471" d="M154 0v1016l163 47v-1063h-163zM-90 1303q0 44 31 75t75 31q45 0 76 -31t31 -75q0 -45 -31 -76t-76 -31q-44 0 -75 31t-31 76zM348 1303q0 44 31 75t75 31q45 0 76 -31t31 -75q0 -45 -31 -76t-76 -31q-44 0 -75 31t-31 76z"/>
<glyph unicode="ð" horiz-adv-x="1145" d="M86 498q0 253 135 409t340 156q128 0 217 -62q-29 122 -170 314l-178 -117l-65 90l180 119q-56 74 -129 152h119q58 -48 102 -93l137 93l68 -89l-127 -86q165 -182 254.5 -408.5t89.5 -434.5q0 -253 -137 -409.5t-349 -156.5q-225 0 -356 136.5t-131 386.5zM268 518 q0 -185 81 -296t222 -111q145 0 225.5 108.5t80.5 298.5q0 182 -78 296t-226 114q-144 0 -224.5 -109.5t-80.5 -300.5z"/>
<glyph unicode="ñ" horiz-adv-x="1161" d="M147 0v1016l164 47v-172q172 172 373 172q180 0 260 -91t80 -284v-688h-164v655q0 147 -46.5 208t-160.5 61q-108 0 -225 -90t-117 -193v-641h-164zM236 1196q0 113 57.5 171t139.5 58q84 0 164 -49q85 -51 127 -51q33 0 54 29.5t21 70.5h132q0 -115 -58.5 -172 t-138.5 -57q-81 0 -164 51q-82 49 -127 49q-33 0 -54.5 -29.5t-21.5 -70.5h-131z"/>
<glyph unicode="ò" horiz-adv-x="1145" d="M86 498q0 257 137.5 411t349.5 154q226 0 356 -137.5t130 -386.5q0 -253 -136.5 -408.5t-349.5 -155.5q-225 0 -356 136.5t-131 386.5zM268 518q0 -185 81 -296t222 -111q145 0 225.5 108.5t80.5 298.5q0 182 -78 296t-226 114q-144 0 -224.5 -109.5t-80.5 -300.5z M236 1481h275l252 -285h-133z"/>
<glyph unicode="ó" horiz-adv-x="1145" d="M86 498q0 257 137.5 411t349.5 154q226 0 356 -137.5t130 -386.5q0 -253 -136.5 -408.5t-349.5 -155.5q-225 0 -356 136.5t-131 386.5zM268 518q0 -185 81 -296t222 -111q145 0 225.5 108.5t80.5 298.5q0 182 -78 296t-226 114q-144 0 -224.5 -109.5t-80.5 -300.5z M391 1196l252 285h274l-393 -285h-133z"/>
<glyph unicode="ô" horiz-adv-x="1145" d="M86 498q0 257 137.5 411t349.5 154q226 0 356 -137.5t130 -386.5q0 -253 -136.5 -408.5t-349.5 -155.5q-225 0 -356 136.5t-131 386.5zM268 518q0 -185 81 -296t222 -111q145 0 225.5 108.5t80.5 298.5q0 182 -78 296t-226 114q-144 0 -224.5 -109.5t-80.5 -300.5z M203 1196l272 285h199l272 -285h-149l-224 190l-221 -190h-149z"/>
<glyph unicode="õ" horiz-adv-x="1145" d="M86 498q0 257 137.5 411t349.5 154q226 0 356 -137.5t130 -386.5q0 -253 -136.5 -408.5t-349.5 -155.5q-225 0 -356 136.5t-131 386.5zM268 518q0 -185 81 -296t222 -111q145 0 225.5 108.5t80.5 298.5q0 182 -78 296t-226 114q-144 0 -224.5 -109.5t-80.5 -300.5z M227 1196q0 113 57.5 171t139.5 58q84 0 164 -49q85 -51 127 -51q33 0 54 29.5t21 70.5h132q0 -115 -58.5 -172t-138.5 -57q-81 0 -164 51q-82 49 -127 49q-33 0 -54.5 -29.5t-21.5 -70.5h-131z"/>
<glyph unicode="ö" horiz-adv-x="1145" d="M86 498q0 257 137.5 411t349.5 154q226 0 356 -137.5t130 -386.5q0 -253 -136.5 -408.5t-349.5 -155.5q-225 0 -356 136.5t-131 386.5zM268 518q0 -185 81 -296t222 -111q145 0 225.5 108.5t80.5 298.5q0 182 -78 296t-226 114q-144 0 -224.5 -109.5t-80.5 -300.5z M248 1303q0 44 31 75t75 31q45 0 76 -31t31 -75q0 -45 -31 -76t-76 -31q-44 0 -75 31t-31 76zM686 1303q0 44 31 75t75 31q45 0 76 -31t31 -75q0 -45 -31 -76t-76 -31q-44 0 -75 31t-31 76z"/>
<glyph unicode="÷" horiz-adv-x="987" d="M70 653v140h848v-140h-848zM385 410q0 44 32 76t77 32q44 0 76 -32t32 -76q0 -45 -32 -77t-76 -32q-45 0 -77 32t-32 77zM385 1036q0 45 32 77t77 32q44 0 76 -32t32 -77q0 -44 -32 -76t-76 -32q-45 0 -77 32t-32 76z"/>
<glyph unicode="ø" horiz-adv-x="1145" d="M84 39l100 113q-98 135 -98 346q0 257 137.5 411t349.5 154q195 0 322 -105l92 105l74 -66l-98 -112q96 -135 96 -346q0 -253 -136.5 -408.5t-349.5 -155.5q-195 0 -319 103l-92 -103zM268 518q0 -124 41 -225l475 541q-78 94 -211 94q-144 0 -224.5 -109.5t-80.5 -300.5 zM365 203q79 -92 206 -92q145 0 225.5 108.5t80.5 298.5q0 132 -39 225z"/>
<glyph unicode="ù" horiz-adv-x="1161" d="M137 352v664l164 47v-680q0 -143 44.5 -205.5t162.5 -62.5q111 0 226.5 90.5t115.5 195.5v615l164 47v-801q0 -133 59 -242l-158 -45q-36 60 -57 179q-179 -179 -373 -179q-185 0 -266.5 89t-81.5 288zM244 1481h275l252 -285h-133z"/>
<glyph unicode="ú" horiz-adv-x="1161" d="M137 352v664l164 47v-680q0 -143 44.5 -205.5t162.5 -62.5q111 0 226.5 90.5t115.5 195.5v615l164 47v-801q0 -133 59 -242l-158 -45q-36 60 -57 179q-179 -179 -373 -179q-185 0 -266.5 89t-81.5 288zM399 1196l252 285h274l-393 -285h-133z"/>
<glyph unicode="û" horiz-adv-x="1161" d="M137 352v664l164 47v-680q0 -143 44.5 -205.5t162.5 -62.5q111 0 226.5 90.5t115.5 195.5v615l164 47v-801q0 -133 59 -242l-158 -45q-36 60 -57 179q-179 -179 -373 -179q-185 0 -266.5 89t-81.5 288zM211 1196l272 285h199l272 -285h-149l-224 190l-221 -190h-149z"/>
<glyph unicode="ü" horiz-adv-x="1161" d="M137 352v664l164 47v-680q0 -143 44.5 -205.5t162.5 -62.5q111 0 226.5 90.5t115.5 195.5v615l164 47v-801q0 -133 59 -242l-158 -45q-36 60 -57 179q-179 -179 -373 -179q-185 0 -266.5 89t-81.5 288zM256 1303q0 44 31 75t75 31q45 0 76 -31t31 -75q0 -45 -31 -76 t-76 -31q-44 0 -75 31t-31 76zM694 1303q0 44 31 75t75 31q45 0 76 -31t31 -75q0 -45 -31 -76t-76 -31q-44 0 -75 31t-31 76z"/>
<glyph unicode="ý" horiz-adv-x="997" d="M25 1038h174l323 -739l314 739h153l-420 -1001q-82 -194 -194 -321t-230 -167l-79 111q234 90 372 438zM317 1196l252 285h274l-393 -285h-133z"/>
<glyph unicode="þ" d="M147 -451v1962l164 48v-607q133 111 287 111q207 0 332 -143.5t125 -382.5q0 -254 -136.5 -408t-336.5 -154q-171 0 -271 99v-477zM311 344q0 -96 63 -163.5t199 -67.5q144 0 221.5 114.5t77.5 311.5q0 184 -83.5 284.5t-208.5 100.5q-137 0 -269 -142v-438z"/>
<glyph unicode="ÿ" horiz-adv-x="997" d="M25 1038h174l323 -739l314 739h153l-420 -1001q-82 -194 -194 -321t-230 -167l-79 111q234 90 372 438zM174 1303q0 44 31 75t75 31q45 0 76 -31t31 -75q0 -45 -31 -76t-76 -31q-44 0 -75 31t-31 76zM612 1303q0 44 31 75t75 31q45 0 76 -31t31 -75q0 -45 -31 -76 t-76 -31q-44 0 -75 31t-31 76z"/>
<glyph unicode="ı" horiz-adv-x="471" d="M154 0v1016l163 47v-1063h-163z"/>
<glyph unicode="Œ" horiz-adv-x="2091" d="M92 680q0 349 180 569.5t486 220.5q136 0 254 -48t192 -134v158h809l-47 -141h-582v-455h519l-43 -133h-476v-574h666v-143h-846v197q-189 -222 -487 -222q-289 0 -457 193t-168 512zM289 711q0 -290 115 -443t331 -153q222 0 345.5 168t123.5 448q0 285 -113.5 442.5 t-332.5 157.5q-225 0 -347 -168.5t-122 -451.5z"/>
<glyph unicode="œ" horiz-adv-x="1815" d="M86 498q0 257 137.5 411t349.5 154q266 0 396 -203q131 203 370 203q179 0 284.5 -113.5t105.5 -300.5v-147h-689q0 -176 84.5 -283.5t237.5 -107.5q126 0 266 88l72 -121q-166 -103 -357 -103q-260 0 -391 203q-144 -203 -379 -203q-225 0 -356 136.5t-131 386.5z M268 518q0 -185 81 -296t222 -111q145 0 225.5 108.5t80.5 298.5q0 182 -78 296t-226 114q-144 0 -224.5 -109.5t-80.5 -300.5zM1047 627h518v63q0 105 -66 173.5t-166 68.5q-115 0 -191.5 -82.5t-94.5 -222.5z"/>
<glyph unicode="Ÿ" horiz-adv-x="1190" d="M29 1446h196l367 -631l393 631h178l-497 -795v-651h-181v659zM271 1653q0 44 31 75t75 31q45 0 76 -31t31 -75q0 -45 -31 -76t-76 -31q-44 0 -75 31t-31 76zM709 1653q0 44 31 75t75 31q45 0 76 -31t31 -75q0 -45 -31 -76t-76 -31q-44 0 -75 31t-31 76z"/>
<glyph unicode="ˆ" horiz-adv-x="799" d="M29 1196l272 285h199l272 -285h-149l-224 190l-221 -190h-149z"/>
<glyph unicode="˚" horiz-adv-x="799" d="M162 1413q0 98 70 168t167 70q98 0 168 -70t70 -168t-69.5 -167.5t-168.5 -69.5q-97 0 -167 69.5t-70 167.5zM281 1413q0 -49 34.5 -84t83.5 -35t84 35t35 84t-35 84t-84 35t-83.5 -35t-34.5 -84z"/>
<glyph unicode="˜" horiz-adv-x="799" d="M53 1196q0 113 57.5 171t139.5 58q84 0 164 -49q85 -51 127 -51q33 0 54 29.5t21 70.5h132q0 -115 -58.5 -172t-138.5 -57q-81 0 -164 51q-82 49 -127 49q-33 0 -54.5 -29.5t-21.5 -70.5h-131z"/>
<glyph unicode=" " horiz-adv-x="1000"/>
<glyph unicode=" " horiz-adv-x="2001"/>
<glyph unicode=" " horiz-adv-x="1000"/>
<glyph unicode=" " horiz-adv-x="2001"/>
<glyph unicode=" " horiz-adv-x="667"/>
<glyph unicode=" " horiz-adv-x="500"/>
<glyph unicode=" " horiz-adv-x="333"/>
<glyph unicode=" " horiz-adv-x="333"/>
<glyph unicode=" " horiz-adv-x="250"/>
<glyph unicode=" " horiz-adv-x="400"/>
<glyph unicode=" " horiz-adv-x="111"/>
<glyph unicode="‐" horiz-adv-x="791" d="M133 434v170h524v-170h-524z"/>
<glyph unicode="‑" horiz-adv-x="791" d="M133 434v170h524v-170h-524z"/>
<glyph unicode="‒" horiz-adv-x="791" d="M133 434v170h524v-170h-524z"/>
<glyph unicode="–" horiz-adv-x="1024" d="M-12 453v133h1048v-133h-1048z"/>
<glyph unicode="—" horiz-adv-x="2048" d="M-18 453v133h2084v-133h-2084z"/>
<glyph unicode="‘" horiz-adv-x="475" d="M109 1196q0 208 184 363l63 -56q-100 -87 -125 -215q63 0 99.5 -33t36.5 -88q0 -54 -36 -91.5t-89 -37.5q-61 0 -97 42.5t-36 115.5z"/>
<glyph unicode="’" horiz-adv-x="475" d="M109 1430q0 54 35.5 91.5t88.5 37.5q62 0 98 -42.5t36 -115.5q0 -207 -185 -363l-63 56q98 87 125 215q-63 0 -99 32.5t-36 88.5z"/>
<glyph unicode="‚" horiz-adv-x="475" d="M109 106q0 55 35.5 92.5t88.5 37.5q62 0 98 -42.5t36 -115.5q0 -207 -185 -363l-63 56q98 87 125 215q-63 0 -99 32.5t-36 87.5z"/>
<glyph unicode="“" horiz-adv-x="885" d="M109 1198q0 207 184 363l63 -56q-98 -87 -125 -215q63 0 99.5 -32.5t36.5 -88.5q0 -54 -36 -91.5t-89 -37.5q-61 0 -97 42.5t-36 115.5zM518 1196q0 207 184 363l64 -56q-98 -87 -125 -215q63 0 99 -33t36 -88q0 -54 -36 -91.5t-89 -37.5q-61 0 -97 42.5t-36 115.5z"/>
<glyph unicode="”" horiz-adv-x="885" d="M109 1430q0 54 35.5 91.5t88.5 37.5q62 0 98 -42.5t36 -115.5q0 -207 -185 -363l-63 56q98 87 125 215q-63 0 -99 32.5t-36 88.5zM518 1430q0 54 36 91.5t89 37.5q61 0 97 -42.5t36 -115.5q0 -207 -184 -363l-64 56q99 87 125 215q-62 0 -98.5 32.5t-36.5 88.5z"/>
<glyph unicode="„" horiz-adv-x="885" d="M109 106q0 55 35.5 92.5t88.5 37.5q62 0 98 -42.5t36 -115.5q0 -207 -185 -363l-63 56q98 87 125 215q-63 0 -99 32.5t-36 87.5zM518 106q0 55 36 92.5t89 37.5q61 0 97 -42.5t36 -115.5q0 -207 -184 -363l-64 56q99 87 125 215q-62 0 -98.5 32.5t-36.5 87.5z"/>
<glyph unicode="•" horiz-adv-x="717" d="M104 713q0 114 76.5 186t177.5 72q105 0 179.5 -74.5t74.5 -179.5q0 -106 -74.5 -180t-179.5 -74q-106 0 -180 75.5t-74 174.5z"/>
<glyph unicode="…" horiz-adv-x="2048" d="M213 104q0 54 38 91.5t91 37.5q54 0 91.5 -37.5t37.5 -91.5q0 -53 -37.5 -91t-91.5 -38q-53 0 -91 38t-38 91zM895 104q0 54 37.5 91.5t91.5 37.5t91.5 -37.5t37.5 -91.5q0 -53 -37.5 -91t-91.5 -38t-91.5 38t-37.5 91zM1577 104q0 54 37.5 91.5t91.5 37.5q53 0 91 -37.5 t38 -91.5q0 -53 -37.5 -91t-91.5 -38t-91.5 38t-37.5 91z"/>
<glyph unicode=" " horiz-adv-x="400"/>
<glyph unicode="‹" horiz-adv-x="766" d="M63 518l494 520h186l-495 -520l491 -518h-188z"/>
<glyph unicode="›" horiz-adv-x="766" d="M23 1038h186l493 -520l-487 -518h-188l491 518z"/>
<glyph unicode=" " horiz-adv-x="500"/>
<glyph unicode="€" d="M66 547l30 121h74v22q0 37 4 94h-106l32 121h86q46 274 200 419.5t388 145.5q167 0 336 -71q-31 -94 -51 -139q-147 67 -309 67q-145 0 -243 -109t-132 -313h547l-29 -121h-531q-4 -42 -4 -71v-45h504l-28 -121h-465q40 -432 331 -432q179 0 361 114l76 -131 q-197 -123 -449 -123q-458 0 -510 572h-112z"/>
<glyph unicode="™" horiz-adv-x="1802" d="M51 1341l35 105h690l-35 -105h-262v-708h-131v708h-297zM774 633l70 786l141 39l248 -610l248 565l155 45l76 -825h-129l-55 604l-258 -594l-80 -22l-246 604l-53 -592h-117z"/>
<glyph unicode="∕" horiz-adv-x="121" d="M-428 -25l840 1495h137l-840 -1495h-137z"/>
<glyph unicode="" horiz-adv-x="1040" d="M0 1040h1040v-1040h-1040v1040z"/>
<glyph unicode="" horiz-adv-x="864" d="M78 880v105l461 483h98v-477h150v-111h-150v-184h-121v184h-438zM217 991h299v313z"/>
<glyph unicode="ﬁ" horiz-adv-x="1071" d="M23 915l45 123h151v105q0 211 96.5 313.5t294.5 102.5q163 0 275 -41l-43 -134q-122 46 -232 46q-125 0 -176 -67t-51 -214v-111h457l86 25v-1063h-164v915h-379v-915h-164v915h-196z"/>
<glyph unicode="ﬂ" horiz-adv-x="1081" d="M23 915l45 123h151v105q0 204 91.5 310t267.5 106q107 0 210 -43l148 43v-1559h-164v1364q-96 66 -178 66q-117 0 -164 -69.5t-47 -211.5v-111h264l-41 -123h-223v-915h-164v915h-196z"/>
<glyph unicode="ﬃ" horiz-adv-x="1765" d="M1427 1305q0 41 30.5 70.5t72.5 29.5q41 0 70.5 -29.5t29.5 -70.5q0 -42 -30 -72.5t-70 -30.5q-42 0 -72.5 30.5t-30.5 72.5zM1448 0v1016l163 47v-1063h-163zM670 915l45 123h151v105q0 416 338 416q119 0 211 -29l-41 -127q-81 27 -143 27q-112 0 -156.5 -66 t-44.5 -215v-111h264l-41 -123h-223v-915h-164v915h-196zM23 915l45 123h151v105q0 416 338 416q119 0 211 -29l-41 -127q-81 27 -143 27q-112 0 -156.5 -66t-44.5 -215v-111h264l-41 -123h-223v-915h-164v915h-196z"/>
<glyph unicode="ﬄ" horiz-adv-x="1765" d="M1448 0v1511l163 48v-1559h-163zM670 915l45 123h151v105q0 416 338 416q119 0 211 -29l-41 -127q-81 27 -143 27q-112 0 -156.5 -66t-44.5 -215v-111h264l-41 -123h-223v-915h-164v915h-196zM23 915l45 123h151v105q0 416 338 416q119 0 211 -29l-41 -127 q-81 27 -143 27q-112 0 -156.5 -66t-44.5 -215v-111h264l-41 -123h-223v-915h-164v915h-196z"/>
</font>
</defs>
</svg>
